<svg xmlns="http://www.w3.org/2000/svg" viewBox="0 0 500 500"><g id="freepik--background-complete--inject-49"><rect x="44.8" y="34.96" width="100.42" height="145.55" style="fill:#e0e0e0"></rect><rect x="39.77" y="34.96" width="100.42" height="145.55" style="fill:#f5f5f5"></rect><rect x="52.25" y="50.73" width="75.47" height="114.02" style="fill:#fff"></rect><path d="M127.71,164.75s0-.19,0-.56,0-.91,0-1.61c0-1.44,0-3.54,0-6.26,0-5.46,0-13.43-.07-23.49,0-20.1-.07-48.57-.12-82.1l.25.25L52.26,51h0l.27-.27c0,43,0,82.67-.06,114l-.21-.22,54.92.12,15.18,0,4,0c.91,0,1.38,0,1.38,0s-.44,0-1.33,0l-3.94,0-15.13,0L52.25,165H52v-.22c0-31.35,0-71-.06-114v-.28h.29l75.45,0H128v.25c0,33.59-.09,62.12-.12,82.27,0,10,0,18-.07,23.43,0,2.7,0,4.78,0,6.2,0,.69,0,1.22,0,1.59S127.71,164.75,127.71,164.75Z" style="fill:#e0e0e0"></path><path d="M140.47,35a16.72,16.72,0,0,1-1.79,2.6c-1.17,1.56-2.82,3.69-4.71,6s-3.66,4.33-5,5.77a17.59,17.59,0,0,1-2.2,2.25,18,18,0,0,1,1.91-2.5c1.35-1.64,3-3.65,4.84-5.87l4.83-5.87A20,20,0,0,1,140.47,35Z" style="fill:#e0e0e0"></path><path d="M128.1,164.38a92.78,92.78,0,0,0,13.16,16.46" style="fill:#fff"></path><path d="M141.26,180.84a14.56,14.56,0,0,1-2.3-2.08,73.71,73.71,0,0,1-5-5.6,71.58,71.58,0,0,1-4.37-6.08,15,15,0,0,1-1.53-2.7,23.06,23.06,0,0,1,1.85,2.48c1.1,1.56,2.66,3.68,4.47,6s3.55,4.25,4.82,5.67A21.84,21.84,0,0,1,141.26,180.84Z" style="fill:#e0e0e0"></path><path d="M39.76,180.4l13.15-16.23" style="fill:#fff"></path><path d="M52.91,164.17a96.66,96.66,0,0,1-6.37,8.29,103.65,103.65,0,0,1-6.78,7.94,97.67,97.67,0,0,1,6.36-8.29A99.81,99.81,0,0,1,52.91,164.17Z" style="fill:#e0e0e0"></path><path d="M39.77,35a91.34,91.34,0,0,1,6.38,7.63,88.83,88.83,0,0,1,6,8,90.59,90.59,0,0,1-6.38-7.64A88,88,0,0,1,39.77,35Z" style="fill:#e0e0e0"></path><rect x="78.93" y="73.88" width="25.27" height="71.75" style="fill:#e0e0e0"></rect><rect x="223.54" y="348.6" width="179.19" height="82.64" style="fill:#f5f5f5"></rect><path d="M398.47,427.35H227.64V353H398.47Zm-169.72-1.11h168.6V354.07H228.75Z" style="fill:#e0e0e0"></path><rect x="402.73" y="348.6" width="43.78" height="82.64" style="fill:#e0e0e0"></rect><path d="M228.2,376H397.91a.23.23,0,0,0,0-.45H228.2a.23.23,0,0,0,0,.45Z" style="fill:#e0e0e0"></path><path d="M313.61,375.75a186.83,186.83,0,0,0,.06-22.45.23.23,0,0,0-.46,0,184.78,184.78,0,0,0,.06,22.45.17.17,0,0,0,.34,0Z" style="fill:#e0e0e0"></path><path d="M359.29,364.53a2.32,2.32,0,1,1-2.31-2.32A2.32,2.32,0,0,1,359.29,364.53Z" style="fill:#e0e0e0"></path><path d="M270.22,364.53a2.31,2.31,0,1,1-2.31-2.32A2.31,2.31,0,0,1,270.22,364.53Z" style="fill:#e0e0e0"></path><path d="M315.37,390.15a2.32,2.32,0,1,1-2.32-2.31A2.31,2.31,0,0,1,315.37,390.15Z" style="fill:#e0e0e0"></path><polygon points="244.96 431.25 235.74 483.13 240.93 483.13 257.94 431.25 244.96 431.25" style="fill:#e0e0e0"></polygon><polygon points="390.06 431.25 397.77 483.22 392.58 483.22 377.08 431.25 390.06 431.25" style="fill:#e0e0e0"></polygon><polygon points="424.7 431.25 433.44 483.22 428.25 483.22 411.72 431.25 424.7 431.25" style="fill:#e0e0e0"></polygon><path d="M315.21,413.54a2.31,2.31,0,1,1-2.31-2.31A2.3,2.3,0,0,1,315.21,413.54Z" style="fill:#e0e0e0"></path><path d="M228.2,401.57H397.91a.23.23,0,0,0,0-.45H228.2a.23.23,0,0,0,0,.45Z" style="fill:#e0e0e0"></path><rect x="302.83" y="427.45" width="10.25" height="50.37" transform="translate(758.96 142.29) rotate(89.7)" style="fill:#e0e0e0"></rect><rect x="303.14" y="447.6" width="15.93" height="56.14" transform="translate(785.12 162.04) rotate(89.7)" style="fill:#f5f5f5"></rect><path d="M328.41,483.37a113.43,113.43,0,0,1,0-15.93,117.62,117.62,0,0,1,0,15.93Z" style="fill:#e0e0e0"></path><path d="M330.76,483.37a117.62,117.62,0,0,1,0-15.93,113.43,113.43,0,0,1,0,15.93Z" style="fill:#e0e0e0"></path><path d="M291.53,483.37a117.62,117.62,0,0,1,0-15.93,117.62,117.62,0,0,1,0,15.93Z" style="fill:#e0e0e0"></path><path d="M293.89,483.37a117.62,117.62,0,0,1,0-15.93,117.62,117.62,0,0,1,0,15.93Z" style="fill:#e0e0e0"></path><path d="M299,475.66c0-.15,5.67-.27,12.65-.27s12.65.12,12.65.27-5.66.28-12.65.28S299,475.82,299,475.66Z" style="fill:#e0e0e0"></path><rect x="320.51" y="427.88" width="10.25" height="69.27" transform="translate(786.43 134.44) rotate(89.7)" style="fill:#ebebeb"></rect><path d="M350.38,466.19a3.32,3.32,0,1,1,3.28-3.32A3.3,3.3,0,0,1,350.38,466.19Z" style="fill:#e0e0e0"></path><rect x="317.17" y="439.69" width="2.05" height="46.37" transform="translate(781.07 144.68) rotate(90)" style="fill:#e0e0e0"></rect></g><g id="freepik--Screen--inject-49"><rect x="188.58" y="48.61" width="266.48" height="266.48" style="fill:#fafafa"></rect><path d="M455.06,315.09c0-1.92-.09-106.69-.22-266.48l.22.23-266.45,0h0l.26-.26c0,97.59,0,189,0,266.48l-.23-.22,266.48.22-266.48.23h-.22v-.23c0-77.44,0-168.89,0-266.48v-.26h.29l266.45,0h.23v.22C455.15,208.4,455.07,313.17,455.06,315.09Z" style="fill:#263238"></path><path d="M267.66,82.49h2.92V88.1A9.5,9.5,0,0,1,265,89.86c-4.34,0-7.54-3-7.54-7.15s3.2-7.15,7.6-7.15A7.37,7.37,0,0,1,270.84,78l-2,1.9a4.68,4.68,0,0,0-3.58-1.56,4.42,4.42,0,1,0,0,8.84,5.13,5.13,0,0,0,2.49-.59Z" style="fill:#7E57C2"></path><path d="M283.67,85.18h-8a2.84,2.84,0,0,0,3,2.13,3.61,3.61,0,0,0,2.67-1L283,88.06a5.55,5.55,0,0,1-4.38,1.72c-3.68,0-6.07-2.31-6.07-5.47a5.41,5.41,0,0,1,5.67-5.47,5.26,5.26,0,0,1,5.53,5.51C283.73,84.59,283.69,84.92,283.67,85.18Zm-8.08-1.8h5.24a2.66,2.66,0,0,0-5.24,0Z" style="fill:#7E57C2"></path><path d="M292.63,89.11a4.43,4.43,0,0,1-2.51.67c-2.5,0-4-1.29-4-3.81V81.6h-1.63V79.23h1.63V76.65h3.08v2.58h2.65V81.6h-2.65v4.33a1.24,1.24,0,0,0,1.33,1.4,2,2,0,0,0,1.24-.4Z" style="fill:#7E57C2"></path><path d="M299.58,75.8a1.76,1.76,0,0,1,1.91-1.72,1.73,1.73,0,0,1,1.92,1.66,1.92,1.92,0,0,1-3.83.06ZM300,79H303V89.62H300Z" style="fill:#7E57C2"></path><path d="M316.75,83.54v6.08h-3.08V84c0-1.71-.79-2.5-2.15-2.5s-2.54.9-2.54,2.86v5.25H305.9V79h2.94v1.24a4.64,4.64,0,0,1,3.51-1.4C314.86,78.84,316.75,80.3,316.75,83.54Z" style="fill:#7E57C2"></path><path d="M332,89.11a4.42,4.42,0,0,1-2.5.67c-2.51,0-4-1.29-4-3.81V81.6h-1.64V79.23h1.64V76.65h3.08v2.58h2.64V81.6h-2.64v4.33a1.23,1.23,0,0,0,1.32,1.4,2,2,0,0,0,1.24-.4Z" style="fill:#7E57C2"></path><path d="M332.58,84.31c0-3.2,2.47-5.47,5.85-5.47s5.82,2.27,5.82,5.47-2.44,5.47-5.82,5.47S332.58,87.51,332.58,84.31Zm8.55,0a2.72,2.72,0,1,0-2.7,2.94A2.67,2.67,0,0,0,341.13,84.31Z" style="fill:#7E57C2"></path><path d="M357,79V89.62h-2.93V88.36a4.31,4.31,0,0,1-3.29,1.42c-2.67,0-4.55-1.5-4.55-4.78V79h3.08v5.55c0,1.77.79,2.56,2.16,2.56s2.45-.91,2.45-2.86V79Z" style="fill:#7E57C2"></path><path d="M359.08,84.31c0-3.2,2.46-5.47,5.92-5.47a4.89,4.89,0,0,1,4.76,2.7l-2.39,1.29A2.64,2.64,0,0,0,365,81.37a2.94,2.94,0,0,0,0,5.88,2.6,2.6,0,0,0,2.39-1.46l2.39,1.3A4.93,4.93,0,0,1,365,89.78C361.54,89.78,359.08,87.51,359.08,84.31Z" style="fill:#7E57C2"></path><path d="M382.31,83.54v6.08h-3.08V84c0-1.71-.79-2.5-2.15-2.5s-2.55.9-2.55,2.86v5.25h-3.08V75h3.08V80.1a4.68,4.68,0,0,1,3.38-1.26C380.42,78.84,382.31,80.3,382.31,83.54Z" style="fill:#7E57C2"></path><path d="M392.55,100.41c0,.14-32.6.26-72.8.26s-72.79-.12-72.79-.26,32.58-.26,72.79-.26S392.55,100.27,392.55,100.41Z" style="fill:#263238"></path><path d="M416.07,146.33s0-.34,0-1,0-1.62,0-2.88c0-2.55,0-6.3,0-11.21l.09.1-192.86.16h0l.26-.26v15.08l-.26-.26,136.83.11,41,.08,11.12,0,2.9,0,1,0-1,0-2.86,0-11.06,0-41,.08-137,.11h-.26V131h.27l192.86.16h.1v.1c0,4.93,0,8.71-.05,11.26,0,1.26,0,2.21,0,2.87S416.07,146.33,416.07,146.33Z" style="fill:#263238"></path><path d="M227.73,120.62V125h-.83l-2.18-2.66V125h-1v-4.38h.83l2.18,2.66v-2.66Z" style="fill:#263238"></path><path d="M231.68,123.08V125h-.92v-.42a1.11,1.11,0,0,1-1,.47c-.79,0-1.26-.44-1.26-1s.42-1,1.45-1h.77c0-.42-.25-.66-.77-.66a1.63,1.63,0,0,0-1,.31l-.35-.68a2.58,2.58,0,0,1,1.45-.41C231.08,121.58,231.68,122.06,231.68,123.08Zm-1,.85v-.34H230c-.45,0-.6.17-.6.39s.21.41.55.41A.71.71,0,0,0,230.7,123.93Z" style="fill:#263238"></path><path d="M238.24,123.07V125h-1v-1.78c0-.54-.25-.79-.64-.79s-.74.28-.74.88V125h-1v-1.78c0-.54-.23-.79-.64-.79s-.74.28-.74.88V125h-1v-3.37h.93V122a1.37,1.37,0,0,1,1.06-.44,1.23,1.23,0,0,1,1.1.55,1.54,1.54,0,0,1,1.22-.55A1.3,1.3,0,0,1,238.24,123.07Z" style="fill:#263238"></path><path d="M242.43,123.59h-2.54a.9.9,0,0,0,1,.68,1.12,1.12,0,0,0,.84-.33l.52.56a2,2,0,0,1-3.31-1.19,1.72,1.72,0,0,1,1.8-1.73,1.66,1.66,0,0,1,1.75,1.75A2.46,2.46,0,0,1,242.43,123.59Zm-2.56-.57h1.66a.84.84,0,0,0-1.66,0Z" style="fill:#263238"></path><path d="M416.07,184s0-.34,0-1,0-1.62,0-2.88c0-2.55,0-6.3,0-11.21l.09.1-192.86.16h0l.26-.26V184l-.26-.26,136.83.11,41,.08,11.12,0,2.9,0,1,0-1,0-2.86,0-11.06,0-41,.08-137,.11h-.26v-15.6h.27l192.86.17h.1v.09c0,4.93,0,8.71-.05,11.26,0,1.26,0,2.21,0,2.87S416.07,184,416.07,184Z" style="fill:#263238"></path><path d="M416.07,259.61s0-.35,0-1,0-1.69,0-3c0-2.66,0-6.57,0-11.64,0-10.15-.05-25-.09-43.59l.16.17-192.86.09h0l.26-.26c0,20.52,0,40.46,0,59.27l-.25-.25,137.9.11,40.36.08,10.84,0h2.81l1,0-.93,0h-2.78l-10.78,0-40.3.07-138.08.11h-.26V200.08h.27l192.86.1h.17v.16c0,18.68-.07,33.51-.09,43.69,0,5.06,0,9,0,11.6,0,1.31,0,2.3,0,3S416.07,259.61,416.07,259.61Z" style="fill:#263238"></path><path d="M227.11,161.82v.82h-3.39v-4.38H227v.81h-2.31v1h2v.79h-2v1Z" style="fill:#263238"></path><path d="M233.53,160.71v1.93h-1v-1.78c0-.54-.24-.79-.63-.79s-.75.28-.75.88v1.69h-1v-1.78c0-.54-.24-.79-.64-.79s-.74.28-.74.88v1.69h-1v-3.37h.94v.39a1.34,1.34,0,0,1,1.05-.44,1.26,1.26,0,0,1,1.11.55,1.53,1.53,0,0,1,1.21-.55A1.31,1.31,0,0,1,233.53,160.71Z" style="fill:#263238"></path><path d="M237.38,160.72v1.92h-.91v-.42a1.12,1.12,0,0,1-1,.47c-.79,0-1.26-.44-1.26-1s.42-1,1.45-1h.77c0-.42-.25-.66-.77-.66a1.63,1.63,0,0,0-1,.31l-.35-.68a2.6,2.6,0,0,1,1.45-.41C236.79,159.22,237.38,159.7,237.38,160.72Zm-1,.85v-.34h-.66c-.46,0-.61.17-.61.39s.21.41.56.41A.71.71,0,0,0,236.4,161.57Z" style="fill:#263238"></path><path d="M238.14,158.26a.56.56,0,0,1,.61-.55.56.56,0,0,1,.61.53.61.61,0,0,1-1.22,0Zm.12,1h1v3.37h-1Z" style="fill:#263238"></path><path d="M240.14,158h1v4.64h-1Z" style="fill:#263238"></path><path d="M246.77,160.72v1.92h-.91v-.42a1.12,1.12,0,0,1-1,.47c-.79,0-1.25-.44-1.25-1s.41-1,1.44-1h.78c0-.42-.25-.66-.78-.66a1.65,1.65,0,0,0-1,.31l-.35-.68a2.6,2.6,0,0,1,1.45-.41C246.18,159.22,246.77,159.7,246.77,160.72Zm-1,.85v-.34h-.67c-.46,0-.6.17-.6.39s.2.41.55.41A.73.73,0,0,0,245.8,161.57Z" style="fill:#263238"></path><path d="M251.12,158v4.64h-.93v-.39a1.32,1.32,0,0,1-1.06.44,1.74,1.74,0,0,1,0-3.47,1.27,1.27,0,0,1,1,.41V158Zm-1,2.95a.86.86,0,1,0-.86.94A.85.85,0,0,0,250.16,161Z" style="fill:#263238"></path><path d="M255.45,158v4.64h-.94v-.39a1.3,1.3,0,0,1-1,.44,1.74,1.74,0,0,1,0-3.47,1.27,1.27,0,0,1,1,.41V158Zm-1,2.95a.86.86,0,1,0-.86.94A.85.85,0,0,0,254.49,161Z" style="fill:#263238"></path><path d="M258.43,159.22v.9h-.22a.83.83,0,0,0-.89.94v1.59h-1v-3.37h.94v.45A1.32,1.32,0,0,1,258.43,159.22Z" style="fill:#263238"></path><path d="M262.26,161.23h-2.54a.9.9,0,0,0,1,.68,1.14,1.14,0,0,0,.84-.33l.52.56a2,2,0,0,1-3.31-1.19,1.72,1.72,0,0,1,1.8-1.73,1.67,1.67,0,0,1,1.75,1.75A2.46,2.46,0,0,1,262.26,161.23Zm-2.56-.57h1.66a.84.84,0,0,0-1.66,0Z" style="fill:#263238"></path><path d="M262.6,162.32l.33-.7a2.25,2.25,0,0,0,1.17.33c.45,0,.62-.12.62-.31,0-.55-2,0-2-1.33,0-.64.57-1.09,1.55-1.09a2.74,2.74,0,0,1,1.3.3l-.33.69a1.9,1.9,0,0,0-1-.25c-.43,0-.62.14-.62.31,0,.58,2,0,2,1.35,0,.62-.58,1.07-1.59,1.07A2.88,2.88,0,0,1,262.6,162.32Z" style="fill:#263238"></path><path d="M265.92,162.32l.33-.7a2.25,2.25,0,0,0,1.17.33c.45,0,.62-.12.62-.31,0-.55-2,0-2-1.33,0-.64.57-1.09,1.55-1.09a2.74,2.74,0,0,1,1.3.3l-.33.69a1.9,1.9,0,0,0-1-.25c-.43,0-.62.14-.62.31,0,.58,2,0,2,1.35,0,.62-.58,1.07-1.59,1.07A2.88,2.88,0,0,1,265.92,162.32Z" style="fill:#263238"></path><path d="M227.7,195.37v-2.63l-1.28,2.17H226l-1.28-2.11v2.57h-.95V191h.83l1.64,2.72,1.62-2.72h.83v4.38Z" style="fill:#263238"></path><path d="M232.9,194h-2.55a.9.9,0,0,0,1,.68,1.15,1.15,0,0,0,.85-.33l.52.57a1.78,1.78,0,0,1-1.39.54,1.75,1.75,0,0,1-1.92-1.73,1.72,1.72,0,0,1,1.79-1.74,1.68,1.68,0,0,1,1.76,1.75C232.92,193.78,232.9,193.88,232.9,194Zm-2.56-.57H232a.84.84,0,0,0-1.66,0Z" style="fill:#263238"></path><path d="M233.24,195.06l.32-.7a2.38,2.38,0,0,0,1.17.32c.46,0,.62-.12.62-.3,0-.55-2,0-2-1.34,0-.63.58-1.09,1.56-1.09a2.73,2.73,0,0,1,1.29.3l-.32.69a2,2,0,0,0-1-.25c-.44,0-.63.14-.63.32,0,.57,2,0,2,1.34,0,.63-.59,1.07-1.59,1.07A3,3,0,0,1,233.24,195.06Z" style="fill:#263238"></path><path d="M236.56,195.06l.32-.7a2.38,2.38,0,0,0,1.17.32c.46,0,.62-.12.62-.3,0-.55-2,0-2-1.34,0-.63.58-1.09,1.56-1.09a2.73,2.73,0,0,1,1.29.3l-.32.69a2,2,0,0,0-1-.25c-.44,0-.63.14-.63.32,0,.57,2,0,2,1.34,0,.63-.59,1.07-1.59,1.07A3,3,0,0,1,236.56,195.06Z" style="fill:#263238"></path><path d="M243.18,193.45v1.92h-.91V195a1.1,1.1,0,0,1-1,.47c-.78,0-1.25-.44-1.25-1s.42-1,1.44-1h.78c0-.42-.25-.66-.78-.66a1.65,1.65,0,0,0-1,.31l-.35-.68a2.6,2.6,0,0,1,1.45-.41C242.59,192,243.18,192.43,243.18,193.45Zm-1,.86V194h-.67c-.46,0-.6.17-.6.4s.2.4.55.4A.73.73,0,0,0,242.21,194.31Z" style="fill:#263238"></path><path d="M247.57,192v2.8c0,1.25-.67,1.82-1.89,1.82a2.77,2.77,0,0,1-1.65-.46l.39-.7a2,2,0,0,0,1.19.38c.69,0,1-.31,1-.92v-.14a1.41,1.41,0,0,1-1.07.42,1.63,1.63,0,1,1,0-3.26,1.36,1.36,0,0,1,1.12.49V192Zm-1,1.57a.89.89,0,1,0-.88.83A.82.82,0,0,0,246.61,193.58Z" style="fill:#263238"></path><path d="M251.76,194h-2.55a.9.9,0,0,0,1,.68,1.15,1.15,0,0,0,.85-.33l.52.57a1.79,1.79,0,0,1-1.39.54,1.74,1.74,0,0,1-1.92-1.73A1.72,1.72,0,0,1,250,192a1.68,1.68,0,0,1,1.76,1.75C251.78,193.78,251.76,193.88,251.76,194Zm-2.56-.57h1.66a.84.84,0,0,0-1.66,0Z" style="fill:#263238"></path><path d="M405.14,296H354.92a12.18,12.18,0,0,1-12.19-12.18h0a12.18,12.18,0,0,1,12.19-12.18h50.22a12.18,12.18,0,0,1,12.18,12.18h0A12.18,12.18,0,0,1,405.14,296Z" style="fill:#7E57C2"></path><path d="M369,285.71l.47-1a3.47,3.47,0,0,0,1.95.61c.81,0,1.14-.27,1.14-.63,0-1.11-3.44-.35-3.44-2.55,0-1,.81-1.85,2.5-1.85a3.94,3.94,0,0,1,2.05.53l-.42,1a3.39,3.39,0,0,0-1.64-.47c-.82,0-1.13.31-1.13.68,0,1.09,3.45.34,3.45,2.52,0,1-.82,1.83-2.52,1.83A4.17,4.17,0,0,1,369,285.71Z" style="fill:#fff"></path><path d="M379.22,284.39h-3.44a1.2,1.2,0,0,0,1.3.91,1.52,1.52,0,0,0,1.14-.44l.71.76a2.67,2.67,0,0,1-4.49-1.61,2.32,2.32,0,0,1,2.44-2.34,2.26,2.26,0,0,1,2.37,2.36C379.25,284.13,379.23,284.28,379.22,284.39Zm-3.46-.77H378a1.14,1.14,0,0,0-2.24,0Z" style="fill:#fff"></path><path d="M384.79,283.68v2.61h-1.33v-2.4c0-.74-.33-1.08-.92-1.08s-1.09.39-1.09,1.23v2.25h-1.32v-4.55h1.26v.53a2,2,0,0,1,1.51-.6A1.79,1.79,0,0,1,384.79,283.68Z" style="fill:#fff"></path><path d="M390.67,280v6.28h-1.26v-.52a1.74,1.74,0,0,1-1.42.59,2.35,2.35,0,0,1,0-4.69,1.75,1.75,0,0,1,1.36.55V280Zm-1.29,4a1.17,1.17,0,1,0-1.16,1.27A1.16,1.16,0,0,0,389.38,284Z" style="fill:#fff"></path><path d="M221.83,69.59a21.35,21.35,0,0,0-2.3-.1,9.38,9.38,0,0,0-5.67,2.27,9.21,9.21,0,0,0-3.1,8.22,8.91,8.91,0,0,0,.73,2.53,9.15,9.15,0,0,0,1.49,2.3,9.13,9.13,0,0,0,10.56,2.3,8.74,8.74,0,0,0,2.31-1.47,8.57,8.57,0,0,0,1.72-2,9.19,9.19,0,0,0,.6-8.76A9.44,9.44,0,0,0,224,70.45a21.18,21.18,0,0,0-2.13-.86,7,7,0,0,1,2.22.68,9.33,9.33,0,0,1,4.45,4.45,9.47,9.47,0,0,1,.93,4.32A9.59,9.59,0,0,1,228,83.9a9.57,9.57,0,0,1-4.22,3.67,9.56,9.56,0,0,1-11.15-2.43A9,9,0,0,1,211,82.71a8.83,8.83,0,0,1-.75-2.66,9.51,9.51,0,0,1,3.33-8.57,9.42,9.42,0,0,1,5.9-2.2A7.34,7.34,0,0,1,221.83,69.59Z" style="fill:#7E57C2"></path><path d="M216.56,70a82.44,82.44,0,0,1,4.52,8.09,79.6,79.6,0,0,1,4,8.33,88,88,0,0,1-4.51-8.09A81,81,0,0,1,216.56,70Z" style="fill:#7E57C2"></path><path d="M218.47,69.47a76.19,76.19,0,0,1,4.38,7.83,79.59,79.59,0,0,1,3.93,8.07,77.29,77.29,0,0,1-4.39-7.83A78.12,78.12,0,0,1,218.47,69.47Z" style="fill:#7E57C2"></path><path d="M220.68,69.5a60.2,60.2,0,0,1,3.87,6.86,58,58,0,0,1,3.42,7.1,61.48,61.48,0,0,1-3.88-6.86A60.41,60.41,0,0,1,220.68,69.5Z" style="fill:#7E57C2"></path><path d="M223.06,69.85a41.15,41.15,0,0,1,3.17,5.51,38.3,38.3,0,0,1,2.7,5.75,41.15,41.15,0,0,1-3.17-5.51A38.3,38.3,0,0,1,223.06,69.85Z" style="fill:#7E57C2"></path><path d="M214.84,71.11a81.44,81.44,0,0,1,4.52,8.09,81,81,0,0,1,4.06,8.33,81,81,0,0,1-4.52-8.09A83.62,83.62,0,0,1,214.84,71.11Z" style="fill:#7E57C2"></path><path d="M213.13,72.22a81.49,81.49,0,0,1,4.52,8.08,83.29,83.29,0,0,1,4,8.33,81,81,0,0,1-4.52-8.09A83.81,83.81,0,0,1,213.13,72.22Z" style="fill:#7E57C2"></path><path d="M211.75,74a60.19,60.19,0,0,1,3.93,7,61.13,61.13,0,0,1,3.47,7.21,60.91,60.91,0,0,1-3.93-7A62.36,62.36,0,0,1,211.75,74Z" style="fill:#7E57C2"></path><path d="M210.73,76.4a37.49,37.49,0,0,1,3.15,5.47,39.17,39.17,0,0,1,2.69,5.71,38.17,38.17,0,0,1-3.15-5.47A37.27,37.27,0,0,1,210.73,76.4Z" style="fill:#7E57C2"></path><path d="M295.45,283.77c-.06,0-.4-.73-1.39-1.84a9.33,9.33,0,0,0-5.35-2.93,9.13,9.13,0,0,0-8.32,2.82,9.17,9.17,0,0,0-2.32,4.78,9.1,9.1,0,0,0,4.92,9.61,8.61,8.61,0,0,0,2.61.86,8.88,8.88,0,0,0,2.62.06A9.28,9.28,0,0,0,296.13,286c-.32-1.44-.74-2.17-.68-2.2a7.23,7.23,0,0,1,.88,2.16,9.32,9.32,0,0,1-.62,6.26,9.45,9.45,0,0,1-2.75,3.46,9.59,9.59,0,0,1-4.68,2,9.21,9.21,0,0,1-2.77,0,9.31,9.31,0,0,1-2.75-.89,9.58,9.58,0,0,1-5.19-10.16,9,9,0,0,1,.89-2.75,9.13,9.13,0,0,1,1.58-2.27,9.53,9.53,0,0,1,8.73-2.86,9.36,9.36,0,0,1,5.45,3.17A7.13,7.13,0,0,1,295.45,283.77Z" style="fill:#7E57C2"></path><path d="M291.78,280a84.23,84.23,0,0,1-3.39,8.63,82.77,82.77,0,0,1-3.86,8.41,84,84,0,0,1,3.38-8.62A83.55,83.55,0,0,1,291.78,280Z" style="fill:#7E57C2"></path><path d="M293.41,281.1a77.28,77.28,0,0,1-3.27,8.36,77.56,77.56,0,0,1-3.75,8.15,76,76,0,0,1,3.27-8.35A79.6,79.6,0,0,1,293.41,281.1Z" style="fill:#7E57C2"></path><path d="M294.79,282.83a60.5,60.5,0,0,1-2.85,7.35,57.72,57.72,0,0,1-3.32,7.14,59.11,59.11,0,0,1,2.85-7.35A57.72,57.72,0,0,1,294.79,282.83Z" style="fill:#7E57C2"></path><path d="M296,284.89a39,39,0,0,1-2.24,5.95,39.51,39.51,0,0,1-2.73,5.73,39.08,39.08,0,0,1,2.25-5.94A40,40,0,0,1,296,284.89Z" style="fill:#7E57C2"></path><path d="M289.84,279.35a85.69,85.69,0,0,1-3.39,8.62,84.94,84.94,0,0,1-3.86,8.42,82.66,82.66,0,0,1,3.38-8.63A79,79,0,0,1,289.84,279.35Z" style="fill:#7E57C2"></path><path d="M287.89,278.72a80.4,80.4,0,0,1-3.38,8.62,82.37,82.37,0,0,1-3.86,8.42,82.05,82.05,0,0,1,3.38-8.62A82.37,82.37,0,0,1,287.89,278.72Z" style="fill:#7E57C2"></path><path d="M285.67,278.76a61.23,61.23,0,0,1-2.89,7.46,61.88,61.88,0,0,1-3.37,7.25A62.21,62.21,0,0,1,282.3,286,61.58,61.58,0,0,1,285.67,278.76Z" style="fill:#7E57C2"></path><path d="M283.14,279.52a39.35,39.35,0,0,1-2.23,5.9,36.51,36.51,0,0,1-2.71,5.7,39.35,39.35,0,0,1,2.23-5.9A37.61,37.61,0,0,1,283.14,279.52Z" style="fill:#7E57C2"></path><path d="M434.08,93.38a27.21,27.21,0,0,0-.63-4.17,16.5,16.5,0,0,0-1.92-4.53,17,17,0,0,0-20.4-7.21,15.76,15.76,0,0,0-4.28,2.31,18.4,18.4,0,0,0-1.92,1.63,18.58,18.58,0,0,0-1.66,2,16.84,16.84,0,0,0,0,20,18.58,18.58,0,0,0,1.66,2,18.4,18.4,0,0,0,1.92,1.63,15.76,15.76,0,0,0,4.28,2.31,17,17,0,0,0,20.4-7.21,16.5,16.5,0,0,0,1.92-4.53,27.21,27.21,0,0,0,.63-4.17,1.16,1.16,0,0,1,0,.28c0,.21,0,.48,0,.82a7.71,7.71,0,0,1-.11,1.33,11.89,11.89,0,0,1-.33,1.79,16.37,16.37,0,0,1-1.86,4.63,17.36,17.36,0,0,1-11.67,8.24,17.42,17.42,0,0,1-9.14-.73,16.43,16.43,0,0,1-4.42-2.36,19.55,19.55,0,0,1-2-1.68,18.6,18.6,0,0,1-1.71-2,17.32,17.32,0,0,1,0-20.61,20.81,20.81,0,0,1,1.71-2,19.55,19.55,0,0,1,2-1.68A16.43,16.43,0,0,1,411,77a17.25,17.25,0,0,1,16.44,2.56,17.13,17.13,0,0,1,4.37,5,16.37,16.37,0,0,1,1.86,4.63A11.89,11.89,0,0,1,434,91a7.71,7.71,0,0,1,.11,1.33c0,.34,0,.61,0,.82A1.16,1.16,0,0,1,434.08,93.38Z" style="fill:#7E57C2"></path><path d="M431.27,84.14c.09.11-5.65,5.06-12.83,11S405.37,106,405.28,105.84s5.65-5,12.83-11S431.18,84,431.27,84.14Z" style="fill:#7E57C2"></path><path d="M433,87.34c.09.11-5.48,4.9-12.43,10.71s-12.67,10.43-12.76,10.32,5.47-4.91,12.43-10.72S432.89,87.23,433,87.34Z" style="fill:#7E57C2"></path><path d="M433.79,91.29c.1.11-4.78,4.33-10.88,9.43s-11.13,9.14-11.22,9,4.78-4.33,10.88-9.43S433.7,91.18,433.79,91.29Z" style="fill:#7E57C2"></path><path d="M434.08,95.68c.09.11-3.82,3.53-8.74,7.64s-9,7.35-9.08,7.24,3.82-3.53,8.75-7.64S434,95.57,434.08,95.68Z" style="fill:#7E57C2"></path><path d="M428.63,81.5c.1.11-5.65,5.06-12.82,11s-13.08,10.77-13.17,10.66,5.65-5.06,12.83-11.06S428.54,81.39,428.63,81.5Z" style="fill:#7E57C2"></path><path d="M426,78.86c.09.11-5.66,5.06-12.83,11S400.1,100.68,400,100.57s5.65-5.06,12.83-11.06S425.9,78.75,426,78.86Z" style="fill:#7E57C2"></path><path d="M422.33,77.08c.09.11-4.85,4.39-11.05,9.57S400,95.93,399.9,95.82s4.85-4.4,11.05-9.57S422.24,77,422.33,77.08Z" style="fill:#7E57C2"></path><path d="M417.59,76.2c.09.11-3.8,3.51-8.68,7.59s-8.93,7.3-9,7.19,3.79-3.51,8.68-7.59S417.5,76.09,417.59,76.2Z" style="fill:#7E57C2"></path><circle cx="398.56" cy="67.78" r="3.2" style="fill:#7E57C2"></circle><path d="M309.5,278.23a3.2,3.2,0,1,1-3.2-3.19A3.2,3.2,0,0,1,309.5,278.23Z" style="fill:#7E57C2"></path></g><g id="freepik--Floor--inject-49"><path d="M458.39,483.78c0,.14-93.31.26-208.38.26s-208.4-.12-208.4-.26,93.29-.26,208.4-.26S458.39,483.63,458.39,483.78Z" style="fill:#263238"></path></g></svg>